<svg height="64" width="64" xmlns="http://www.w3.org/2000/svg" viewBox="0 0 512 512" xml:space="preserve"><path style="fill:#bdc4d0" d="M179.209 179.2h153.583L256 409.574z"/><path style="fill:#d3d7df" d="M89.6 89.6h179.2l-89.6 89.6z"/><path style="fill:#c5dfe2" d="M7.501 179.2h171.69l68.702 206.106-21.196 13.098z"/><path style="fill:#e2eff0" d="m179.2 179.2 76.8-76.8 76.8 76.8z"/><path style="fill:#a9d0d3" d="M243.2 89.6h179.2l-89.6 89.6z"/><path style="fill:#8cc0c5" d="m7.501 179.2 85.845-85.854L179.2 179.2zM264.107 385.306 332.809 179.2h171.69L285.303 398.404z"/><path style="fill:#bdc4d0" d="m332.8 179.2 85.854-85.854 85.845 85.854z"/><path style="fill:#573a32" d="M427.699 84.301A25.57 25.57 0 0 0 409.6 76.8H102.4a25.569 25.569 0 0 0-18.099 7.501l-76.8 76.8c-10.001 10.001-10.001 26.206 0 36.207l230.4 230.4c4.992 4.992 11.546 7.492 18.099 7.492 6.554 0 13.107-2.5 18.099-7.501l230.4-230.4c10.001-10.001 10.001-26.206 0-36.207l-76.8-76.791zM391.501 102.4 332.8 161.101 274.099 102.4h117.402zm-89.6 64h-91.802L256 120.499l45.901 45.901zm-64-64L179.2 161.101 120.499 102.4h117.402zm-144.555 9.054 54.946 54.946H38.4l54.946-54.946zM38.4 192h131.567l65.783 197.35L38.4 192zM256 369.101 196.966 192h118.067L256 369.101zm20.25 20.249L342.033 192H473.6L276.25 389.35zm87.449-222.95 54.946-54.946L473.6 166.4H363.699z"/></svg>